<svg width="1138" height="677" viewBox="0 0 1138 677" fill="none" xmlns="http://www.w3.org/2000/svg">
<path d="M1130.66 148.914C1132.96 146.613 1136.85 148.161 1137.01 151.347V151.549V431.991C1137.01 432.981 1136.62 433.927 1135.92 434.626L1040.98 529.557C1038.63 531.907 1034.62 530.244 1034.62 526.922V401.116C1034.62 396.903 1029.53 394.794 1026.55 397.774L881.236 543.079C878.886 545.429 874.873 543.766 874.873 540.444V4.25276C874.873 0.931052 878.886 -0.731845 881.236 1.6176L976.164 96.5337C976.864 97.2331 977.256 98.1787 977.256 99.1688V290.882C977.256 295.095 982.345 297.204 985.325 294.224L1130.66 148.914ZM0.504974 151.549V151.348C0.663233 148.161 4.56054 146.612 6.86229 148.914L152.192 294.224C155.172 297.204 160.262 295.095 160.262 290.882V99.1688C160.262 98.1787 160.653 97.2331 161.353 96.5337L256.282 1.6176C258.631 -0.731844 262.644 0.931051 262.644 4.25276V540.444C262.644 543.766 258.631 545.429 256.282 543.079L110.972 397.774L110.618 398.127L110.972 397.774C107.992 394.794 102.902 396.903 102.902 401.116V526.922C102.902 530.244 98.8896 531.907 96.5399 529.557L1.59608 434.626C0.896497 433.927 0.504974 432.981 0.504974 431.991V151.549ZM845.688 4.23628V577.076C845.688 578.066 845.296 579.011 844.597 579.711L749.658 674.637C747.308 676.986 743.296 675.323 743.296 672.002V400.017C743.296 395.804 738.206 393.695 735.226 396.674L589.896 541.99C587.547 544.339 583.534 542.677 583.534 539.355V405.111C583.534 404.121 583.926 403.175 584.625 402.476L741.907 245.206C742.794 244.318 743.291 243.118 743.291 241.863V99.1673C743.291 98.1772 743.682 97.2316 744.382 96.5322L839.326 1.60112C841.675 -0.748324 845.688 0.914572 845.688 4.23628ZM291.829 577.076V4.23628C291.829 0.914569 295.842 -0.748321 298.192 1.60112L393.135 96.5322C393.835 97.2316 394.227 98.1772 394.227 99.1673V241.863C394.227 243.118 394.723 244.318 395.611 245.206L552.892 402.476C553.592 403.175 553.983 404.121 553.983 405.111V539.355C553.983 542.677 549.971 544.339 547.621 541.99L402.291 396.674C399.311 393.695 394.222 395.804 394.222 400.017V672.002C394.222 675.323 390.209 676.986 387.859 674.637L292.92 579.711C292.221 579.011 291.829 578.066 291.829 577.076Z" stroke="black"/>
</svg>
