<svg width="234" height="33" viewBox="0 0 234 33" fill="none" xmlns="http://www.w3.org/2000/svg">
<path d="M42.105 13.2C45.5356 21.2077 53.4087 26.4 62.1203 26.4L187.055 26.4C190.471 26.4 193.748 25.0441 196.165 22.63C198.582 20.2159 201.859 18.86 205.275 18.86L228.35 18.86C231.404 18.86 233.88 21.3357 233.88 24.3896C233.88 25.8561 233.297 27.2626 232.26 28.2996L230.72 29.84C228.697 31.8633 225.952 33 223.091 33L17.2224 33C10.8766 33 5.09323 29.3609 2.34724 23.6401C-2.91036 12.6868 5.07258 2.0003e-05 17.2224 1.89408e-05L23.1207 1.84252e-05C31.2068 1.77183e-05 38.5147 4.81954 41.699 12.2523L42.105 13.2Z" fill="#232323"/>
</svg>
